<svg xmlns="http://www.w3.org/2000/svg" width="513" height="155" fill="none"><path fill="#E1FCAD" d="M123.863 117V6.495h18.201V52.81h53.627V6.495h18.201V117h-18.201V67.598h-53.627V117zM234.4 154.864c-3.738 0-7.638-.975-9.588-1.625v-13.325h4.712c9.913 0 13.651-1.95 21.126-19.989l2.6-6.012-34.776-83.53h18.688l21.451 53.953 3.738 11.863 3.738-11.863 20.8-53.952h17.714l-39.327 96.692c-8.775 21.613-15.438 27.788-30.876 27.788m101.282-35.751c-22.913 0-36.726-17.063-36.726-45.34 0-29.413 14.138-45.664 36.726-45.664 9.913 0 18.038 4.063 23.564 12.025V-.005h17.388V117h-17.388v-10.563c-5.526 8.126-13.651 12.676-23.564 12.676m2.275-14.626c13.813 0 21.289-10.725 21.289-30.714 0-19.826-7.801-31.038-21.289-31.038-13.813 0-21.288 11.05-21.288 31.038 0 19.664 7.8 30.714 21.288 30.714M384.606 117V30.384h17.388v12.838c5.688-10.4 14.626-15.113 24.701-15.113 3.413 0 6.663.812 8.288 2.275V45.66c-2.6-.813-5.688-1.138-9.263-1.138-16.576 0-23.726 10.075-23.726 25.189V117zm69.228-58.34h-17.389c2.763-19.176 15.926-30.551 37.539-30.551 23.564 0 35.265 13.813 35.265 33.964v33.801c0 10.401.975 16.413 2.925 21.126h-18.201c-1.3-3.25-1.788-7.8-1.95-12.675-7.313 10.238-18.526 14.788-28.926 14.788-17.551 0-29.577-8.288-29.577-24.864 0-11.863 6.501-20.638 19.501-25.026 11.538-3.9 23.239-4.875 38.839-5.038v-1.95c0-12.675-5.85-19.5-19.176-19.5-11.213 0-17.225 6.175-18.85 15.925m-2.763 34.94c0 7.312 6.013 11.862 15.276 11.862 14.463 0 25.513-11.538 25.513-25.513v-3.9c-33.314.324-40.789 7.637-40.789 17.55Zm-392.88 24.874q-11.84 0-22.28-4.362-10.438-4.518-18.385-12.464-7.945-7.947-12.464-18.385Q.7 72.823.7 60.983q0-11.997 4.362-22.28Q9.58 28.264 17.526 20.318T35.911 8.01q10.44-4.518 22.28-4.518 11.997 0 22.28 4.518 10.439 4.361 18.385 12.308t12.308 18.385q4.518 10.283 4.518 22.28 0 11.84-4.518 22.28-4.362 10.438-12.308 18.385-7.947 7.946-18.385 12.464-10.283 4.362-22.28 4.362m0-13.71q8.88 0 16.671-3.428 7.946-3.428 13.867-9.348a44.7 44.7 0 0 0 9.504-14.023q3.427-7.946 3.427-16.982 0-9.192-3.427-17.139-3.429-7.945-9.505-13.866-5.92-5.92-13.866-9.348-7.79-3.428-16.67-3.428T41.364 20.63a46.6 46.6 0 0 0-13.866 9.348q-5.92 5.921-9.348 13.866-3.428 7.946-3.428 17.139 0 9.036 3.428 16.982 3.427 7.947 9.348 14.023a46.6 46.6 0 0 0 13.866 9.348q7.947 3.428 16.827 3.428m.623-11.841q-9.036 0-16.047-4.051-7.012-4.05-11.063-11.218-3.895-7.322-3.895-16.827 0-9.348 3.895-16.515 4.052-7.167 11.063-11.218 7.011-4.05 16.047-4.05 7.947 0 14.178 3.115 6.232 3.117 10.128 8.725 3.894 5.453 4.518 12.62l-15.269.78q-.78-5.61-4.518-9.037-3.584-3.428-9.037-3.428-4.674 0-8.257 2.337-3.584 2.337-5.61 6.7-1.869 4.206-1.869 9.971 0 5.92 1.87 10.283 2.025 4.207 5.609 6.7 3.583 2.337 8.257 2.337 3.74 0 6.7-1.558 3.116-1.714 4.986-4.674t2.337-7.167l15.268.779q-.623 7.323-4.674 13.087-3.894 5.764-10.283 9.037-6.387 3.271-14.334 3.272"/></svg>